<?xml version="1.0" encoding="utf-8"?>
<!-- Generator: Adobe Illustrator 24.3.0, SVG Export Plug-In . SVG Version: 6.00 Build 0)  -->
<svg version="1.1" id="Layer_1" xmlns="http://www.w3.org/2000/svg" xmlns:xlink="http://www.w3.org/1999/xlink" x="0px" y="0px"
	 viewBox="0 0 297.5 419.9" style="enable-background:new 0 0 297.5 419.9;" xml:space="preserve">
<style type="text/css">
	.st0{fill:#131313;}
	.st1{fill:#FFCC33;}
	.st2{opacity:0.986;fill:#EBEBEB;fill-opacity:0;enable-background:new    ;}
	.st3{opacity:0.986;fill:#EBEBEB;fill-opacity:0.9216;enable-background:new    ;}
	.st4{fill:#F8DC3D;}
</style>
<g>
	<polygon class="st0" points="201.4,15.5 176.7,15.5 202.4,43.4 202.4,56.7 149.5,56.7 149.5,41.1 175.2,41.1 149.5,13.3 149.5,0 
		201.4,0 	"/>
	<g>
		<rect x="119.5" y="0.2" class="st0" width="19.3" height="56.3"/>
		
			<rect x="106.2" y="23.9" transform="matrix(-1.836970e-16 1 -1 -1.836970e-16 162.6692 -69.0081)" class="st0" width="19.3" height="46"/>
		
			<rect x="92.8" y="33.8" transform="matrix(-1 -1.224647e-16 1.224647e-16 -1 204.9268 80.931)" class="st0" width="19.3" height="13.4"/>
	</g>
</g>
<g id="g5193" transform="translate(4.988 -113.385)">
	<path id="path5113" class="st1" d="M23.2,499.3L-4.2,196.9l295.9,0.1l-27.2,302l-121,34.2L23.2,499.3z M242.2,482.8l23-259H144
		l0.9,285.6L242.2,482.8z M132.7,261.8h-29.4l-0.3,155l-57.1-15.6l0.1,35.4l86.8,23.4V261.8L132.7,261.8z"/>
	<path id="path5159" class="st2" d="M123,457.2c-3.8-1.2-22.6-6.2-41.8-11.4l-34.7-9.3V419c0-17.1,0-17.4,1.7-16.9
		c0.9,0.3,13.6,3.8,28.2,7.8l26.4,7.3l0.2-77.3l0.2-77.3h28.9V361c0,78.1-0.2,98.3-1,98.3C130.5,459.2,126.8,458.2,123,457.2
		L123,457.2z"/>
	<path id="path5157" class="st3" d="M45.9,436.7l-0.1-35.4c0,0,36.5,10.3,57.1,15.6l0.3-154.9h29.4v198.2L45.9,436.7L45.9,436.7z"/>
	<path id="path5117" class="st4" d="M144,223.7h121.2l-23,259L144,509.4V223.7z M236,439.3l8-96.8l-58.9,6.6v-51.7l62.8-0.2
		l2.5-35.3l-94.8,0.5l1.3,128.6l57.2-9.8l-0.8,28.6L155.6,425l0.6,35.1L236,439.3L236,439.3z"/>
</g>
</svg>
