<svg id="Layer_1" data-name="Layer 1" xmlns="http://www.w3.org/2000/svg" viewBox="0 0 96 96"><defs><style>.cls-1{fill:#33f;}</style></defs><path class="cls-1" d="M17.29,53.27a6.17,6.17,0,0,1-3.83-1,3.71,3.71,0,0,1-1.42-3h2.41a2.14,2.14,0,0,0,.78,1.57,3.28,3.28,0,0,0,2,.47,5.29,5.29,0,0,0,.9-.08,2.77,2.77,0,0,0,.75-.27,1.74,1.74,0,0,0,.52-.49,1.29,1.29,0,0,0,.19-.72,1.19,1.19,0,0,0-.21-.73,1.61,1.61,0,0,0-.61-.49,5.06,5.06,0,0,0-.94-.34l-1.25-.29c-.54-.13-1.07-.27-1.57-.42a4.66,4.66,0,0,1-1.33-.62,2.83,2.83,0,0,1-1.26-2.57,3.19,3.19,0,0,1,1.31-2.72,4.75,4.75,0,0,1,1.47-.69A7.31,7.31,0,0,1,17,40.62a5.27,5.27,0,0,1,3.31,1,3.75,3.75,0,0,1,1.39,2.82H19.36A1.79,1.79,0,0,0,18.62,43a2.7,2.7,0,0,0-1.6-.46,2.89,2.89,0,0,0-1.6.39,1.19,1.19,0,0,0-.6,1,1.1,1.1,0,0,0,.17.62,1.31,1.31,0,0,0,.49.43,3.34,3.34,0,0,0,.82.32c.33.09.72.19,1.18.29.62.14,1.21.29,1.76.45a5.62,5.62,0,0,1,1.44.66,3,3,0,0,1,1,1A3.24,3.24,0,0,1,22,49.43a3.63,3.63,0,0,1-.36,1.64,3.52,3.52,0,0,1-1,1.21,4.62,4.62,0,0,1-1.49.74A6.7,6.7,0,0,1,17.29,53.27Z"/><path class="cls-1" d="M28.82,53V52h-.06a3.28,3.28,0,0,1-1,.93,2.92,2.92,0,0,1-1.48.33A2.92,2.92,0,0,1,24,52.39a3.27,3.27,0,0,1-.78-2.3V44.28h2.29V49.7a1.76,1.76,0,0,0,.35,1.17,1.36,1.36,0,0,0,1.1.41,1.58,1.58,0,0,0,1.28-.55,2.13,2.13,0,0,0,.47-1.42v-5H31V53Z"/><path class="cls-1" d="M32.54,44.28h2.22v1.09h.06a3.53,3.53,0,0,1,1-1A3,3,0,0,1,37.38,44a3.51,3.51,0,0,1,1.57.34,3.77,3.77,0,0,1,1.2.94,4.4,4.4,0,0,1,.76,1.46,6.13,6.13,0,0,1,.26,1.87,6.34,6.34,0,0,1-.27,1.91A4.18,4.18,0,0,1,40.13,52a3.45,3.45,0,0,1-1.2.92,3.53,3.53,0,0,1-1.53.32,3.09,3.09,0,0,1-1.53-.34,2.68,2.68,0,0,1-1-.9h0v3.85H32.54Zm4.37,7a1.66,1.66,0,0,0,1.4-.69,3.09,3.09,0,0,0,.52-1.92,3.93,3.93,0,0,0-.47-2,1.65,1.65,0,0,0-1.54-.78,1.77,1.77,0,0,0-.92.22,1.81,1.81,0,0,0-.63.6,2.38,2.38,0,0,0-.36.89,5.54,5.54,0,0,0-.11,1.1,3.08,3.08,0,0,0,.54,1.9A1.82,1.82,0,0,0,36.91,51.33Z"/><path class="cls-1" d="M46.34,53.25a4.89,4.89,0,0,1-1.93-.35,4.24,4.24,0,0,1-1.42-1,4.16,4.16,0,0,1-.87-1.47,5.43,5.43,0,0,1-.3-1.82,5.1,5.1,0,0,1,.31-1.81A4.26,4.26,0,0,1,43,45.37,4.18,4.18,0,0,1,46.12,44a4.3,4.3,0,0,1,1.85.38,3.85,3.85,0,0,1,1.35,1.08,5.06,5.06,0,0,1,.82,1.66,7.47,7.47,0,0,1,.28,2.13H44.1a2.75,2.75,0,0,0,.69,1.6,2,2,0,0,0,1.54.58,1.84,1.84,0,0,0,1.08-.29,1.62,1.62,0,0,0,.6-.78h2.28a3.42,3.42,0,0,1-.44,1.09,3.34,3.34,0,0,1-.81.91,3.79,3.79,0,0,1-1.18.62A4.58,4.58,0,0,1,46.34,53.25Zm-.18-7.42a1.82,1.82,0,0,0-1.4.5,2.54,2.54,0,0,0-.63,1.37H48a2.13,2.13,0,0,0-.55-1.36A1.76,1.76,0,0,0,46.16,45.83Z"/><path class="cls-1" d="M53.72,45.67h.05a3.26,3.26,0,0,1,.89-1.12,2,2,0,0,1,1.25-.37,1.94,1.94,0,0,1,.55.06v2h-.05a2.38,2.38,0,0,0-1.87.49,2.45,2.45,0,0,0-.74,2V53H51.49V44.28h2.23Z"/><path class="cls-1" d="M57,44.28h1.2V41.56H60.5v2.72H62v1.53H60.5v4.62a.81.81,0,0,0,.24.68,1,1,0,0,0,.63.19h.44l.24,0V53l-.37,0-.46,0H60.6a3.44,3.44,0,0,1-.84-.1,2,2,0,0,1-.75-.33,1.84,1.84,0,0,1-.56-.64,2.26,2.26,0,0,1-.21-1V45.81H57Z"/><path class="cls-1" d="M67.2,53.25a4.89,4.89,0,0,1-1.93-.35,4.24,4.24,0,0,1-1.42-1A4,4,0,0,1,63,50.45a5.43,5.43,0,0,1-.3-1.82A5.1,5.1,0,0,1,63,46.82a4.26,4.26,0,0,1,.89-1.45A4.18,4.18,0,0,1,67,44a4.3,4.3,0,0,1,1.85.38,3.85,3.85,0,0,1,1.35,1.08A5.06,5.06,0,0,1,71,47.16a7.47,7.47,0,0,1,.28,2.13H65a2.75,2.75,0,0,0,.69,1.6,2,2,0,0,0,1.53.58,1.85,1.85,0,0,0,1.09-.29,1.62,1.62,0,0,0,.6-.78h2.28a3.42,3.42,0,0,1-.44,1.09,3.34,3.34,0,0,1-.81.91,3.74,3.74,0,0,1-1.19.62A4.48,4.48,0,0,1,67.2,53.25ZM67,45.83a1.81,1.81,0,0,0-1.39.5A2.54,2.54,0,0,0,65,47.7h3.88a2.13,2.13,0,0,0-.55-1.36A1.76,1.76,0,0,0,67,45.83Z"/><path class="cls-1" d="M75.89,53.25A4.56,4.56,0,0,1,73,52.41a3,3,0,0,1-1.14-2.23H74a1.54,1.54,0,0,0,.62,1.1,2.66,2.66,0,0,0,2.47.07.84.84,0,0,0,.41-.73.64.64,0,0,0-.19-.49,1.42,1.42,0,0,0-.51-.31,4.18,4.18,0,0,0-.74-.19l-.85-.17c-.4-.08-.78-.17-1.15-.27a3.43,3.43,0,0,1-1-.44,2.07,2.07,0,0,1-.69-.75,2.28,2.28,0,0,1-.27-1.17,2.49,2.49,0,0,1,.28-1.23,2.42,2.42,0,0,1,.75-.87,3.35,3.35,0,0,1,1.13-.52,5.65,5.65,0,0,1,1.4-.17,4,4,0,0,1,2.66.78,3.06,3.06,0,0,1,1.08,2.11h-2.1a1.23,1.23,0,0,0-.51-1,2.07,2.07,0,0,0-1.17-.28,2.17,2.17,0,0,0-1.09.24.8.8,0,0,0-.4.72.51.51,0,0,0,.2.45,1.81,1.81,0,0,0,.54.28,5.7,5.7,0,0,0,.76.18c.29,0,.59.1.89.17s.73.17,1.1.27a3.2,3.2,0,0,1,1,.45,2.25,2.25,0,0,1,.72.78,2.55,2.55,0,0,1,.27,1.25,2.5,2.5,0,0,1-.27,1.18,2.57,2.57,0,0,1-.76.88,3.84,3.84,0,0,1-1.15.55A5.38,5.38,0,0,1,75.89,53.25Z"/><path class="cls-1" d="M79.92,44.28h1.2V41.56h2.26v2.72h1.5v1.53h-1.5v4.62a.81.81,0,0,0,.24.68,1,1,0,0,0,.63.19h.44l.24,0V53l-.37,0-.46,0h-.61a3.33,3.33,0,0,1-.84-.1,2.07,2.07,0,0,1-.76-.33,1.72,1.72,0,0,1-.55-.64,2.14,2.14,0,0,1-.22-1V45.81h-1.2Z"/></svg>