<svg id="Layer_1" data-name="Layer 1" xmlns="http://www.w3.org/2000/svg" viewBox="0 0 96 96"><defs><style>.cls-1{fill:#094b68;}.cls-2{fill:none;stroke:#094b68;stroke-miterlimit:10;stroke-width:1.5px;}</style></defs><path class="cls-1" d="M17,89.53A6.66,6.66,0,0,1,14.33,89a6.09,6.09,0,0,1-2.1-1.49,6.9,6.9,0,0,1-1.37-2.25,8.21,8.21,0,0,1-.49-2.86,8.76,8.76,0,0,1,.46-2.84,6.91,6.91,0,0,1,1.32-2.29,6,6,0,0,1,2.08-1.52A6.59,6.59,0,0,1,17,75.2a7,7,0,0,1,2.27.35,5.28,5.28,0,0,1,1.72,1A4.58,4.58,0,0,1,22.12,78a5.55,5.55,0,0,1,.54,1.83H19.88a2.73,2.73,0,0,0-.94-1.67,3,3,0,0,0-2-.62,3.52,3.52,0,0,0-1.67.37,3.29,3.29,0,0,0-1.16,1,4.83,4.83,0,0,0-.7,1.54,7.75,7.75,0,0,0-.23,1.91,7,7,0,0,0,.26,1.94,5,5,0,0,0,.75,1.54A3.37,3.37,0,0,0,17,87.23a3.08,3.08,0,0,0,2-.66A2.62,2.62,0,0,0,20,84.81H22.7a4.92,4.92,0,0,1-.45,1.76,4.71,4.71,0,0,1-1.07,1.49,5.22,5.22,0,0,1-1.73,1.07A6.79,6.79,0,0,1,17,89.53Z"/><path class="cls-1" d="M29.48,89.54a7,7,0,0,1-4.35-1.18A4.26,4.26,0,0,1,23.52,85h2.74a2.43,2.43,0,0,0,.89,1.78,3.77,3.77,0,0,0,2.21.53,4.77,4.77,0,0,0,1-.1,2.76,2.76,0,0,0,.85-.3,1.7,1.7,0,0,0,.58-.55,1.46,1.46,0,0,0,.23-.82,1.38,1.38,0,0,0-.24-.83,1.85,1.85,0,0,0-.69-.55A5.28,5.28,0,0,0,30,83.76c-.41-.11-.89-.22-1.41-.34s-1.21-.3-1.78-.47a5.39,5.39,0,0,1-1.51-.7,3.41,3.41,0,0,1-1-1.14,3.46,3.46,0,0,1-.4-1.77,3.78,3.78,0,0,1,.4-1.79,3.49,3.49,0,0,1,1.09-1.29,4.86,4.86,0,0,1,1.67-.78,7.84,7.84,0,0,1,2.12-.26,5.94,5.94,0,0,1,3.74,1.09,4.21,4.21,0,0,1,1.57,3.2H31.83A2.11,2.11,0,0,0,31,78a3,3,0,0,0-1.81-.52,3.3,3.3,0,0,0-1.81.44,1.37,1.37,0,0,0-.68,1.18,1.18,1.18,0,0,0,.19.7,1.48,1.48,0,0,0,.55.49,4.18,4.18,0,0,0,.94.37l1.33.33c.7.15,1.37.32,2,.51a6,6,0,0,1,1.64.74,3.41,3.41,0,0,1,1.1,1.17,3.7,3.7,0,0,1,.41,1.83,4.14,4.14,0,0,1-.41,1.86,3.91,3.91,0,0,1-1.11,1.37,5.41,5.41,0,0,1-1.7.84A7.57,7.57,0,0,1,29.48,89.54Z"/><path class="cls-1" d="M41.93,89.54a7,7,0,0,1-4.34-1.18A4.26,4.26,0,0,1,36,85h2.74a2.43,2.43,0,0,0,.89,1.78,3.77,3.77,0,0,0,2.21.53,4.77,4.77,0,0,0,1-.1,2.76,2.76,0,0,0,.85-.3,1.7,1.7,0,0,0,.58-.55,1.46,1.46,0,0,0,.23-.82,1.38,1.38,0,0,0-.24-.83,1.85,1.85,0,0,0-.69-.55,5.28,5.28,0,0,0-1.07-.38c-.41-.11-.89-.22-1.41-.34s-1.21-.3-1.78-.47a5.39,5.39,0,0,1-1.51-.7,3.25,3.25,0,0,1-1.43-2.91,3.9,3.9,0,0,1,.39-1.79,3.61,3.61,0,0,1,1.1-1.29,4.86,4.86,0,0,1,1.67-.78,7.84,7.84,0,0,1,2.12-.26,5.94,5.94,0,0,1,3.74,1.09A4.21,4.21,0,0,1,47,79.51H44.28A2.1,2.1,0,0,0,43.44,78a3,3,0,0,0-1.81-.52,3.3,3.3,0,0,0-1.81.44,1.37,1.37,0,0,0-.68,1.18,1.18,1.18,0,0,0,.19.7,1.48,1.48,0,0,0,.55.49,4.18,4.18,0,0,0,.94.37l1.33.33c.7.15,1.37.32,2,.51a6,6,0,0,1,1.64.74,3.41,3.41,0,0,1,1.1,1.17,3.7,3.7,0,0,1,.41,1.83,4.14,4.14,0,0,1-.41,1.86,3.91,3.91,0,0,1-1.11,1.37,5.41,5.41,0,0,1-1.7.84A7.64,7.64,0,0,1,41.93,89.54Z"/><path class="cls-1" d="M62.19,87.39h0a4.08,4.08,0,0,1-1.67,1.66,4.85,4.85,0,0,1-2.2.48A6.83,6.83,0,0,1,55.52,89a6.27,6.27,0,0,1-2.07-1.48,6.62,6.62,0,0,1-1.33-2.26,9.06,9.06,0,0,1,.12-6,6.44,6.44,0,0,1,1.67-2.44,5.89,5.89,0,0,1,2-1.18,7.13,7.13,0,0,1,2.48-.4,7.56,7.56,0,0,1,2.32.33,5.37,5.37,0,0,1,1.77,1A5.06,5.06,0,0,1,63.61,78a6.32,6.32,0,0,1,.63,1.85H61.5a3,3,0,0,0-1-1.65,3.16,3.16,0,0,0-2.1-.64,3.64,3.64,0,0,0-1.7.37,3.5,3.5,0,0,0-1.22,1,4.88,4.88,0,0,0-.73,1.56,7.43,7.43,0,0,0-.24,1.92,6.66,6.66,0,0,0,.27,1.95,4.73,4.73,0,0,0,.77,1.54,3.59,3.59,0,0,0,1.21,1,3.52,3.52,0,0,0,1.6.36A3.85,3.85,0,0,0,59.83,87a3.52,3.52,0,0,0,1.11-.71,3.11,3.11,0,0,0,.71-1,2.7,2.7,0,0,0,.25-1.14v-.07H58.59V81.92h5.8v7.32h-2.1Z"/><path class="cls-1" d="M68.65,80.94h0a3.73,3.73,0,0,1,1-1.27,2.27,2.27,0,0,1,1.43-.43,2,2,0,0,1,.62.08v2.29h-.06a2.73,2.73,0,0,0-2.12.56,2.78,2.78,0,0,0-.83,2.25v4.82H66.12V79.36h2.53Z"/><path class="cls-1" d="M72.88,75.47H75.5v2.35H72.88Zm0,3.89H75.5v9.88H72.88Z"/><path class="cls-1" d="M80.89,89.53a4,4,0,0,1-1.69-.37,3.62,3.62,0,0,1-1.32-1A5,5,0,0,1,77,86.47a7.32,7.32,0,0,1-.31-2.16A7.09,7.09,0,0,1,77,82.19a5,5,0,0,1,.88-1.65,4.2,4.2,0,0,1,1.34-1.07,3.81,3.81,0,0,1,1.69-.38,3.16,3.16,0,0,1,1.71.42,3.47,3.47,0,0,1,1.08,1h.06V75.47H86.4V89.24H83.88V88h0a3.48,3.48,0,0,1-1.18,1.14A3.37,3.37,0,0,1,80.89,89.53Zm.58-2.2a2.08,2.08,0,0,0,1.77-.8,3.52,3.52,0,0,0,.6-2.17,5.75,5.75,0,0,0-.13-1.29,2.93,2.93,0,0,0-.39-1,2,2,0,0,0-.7-.64,2.2,2.2,0,0,0-1.07-.23,1.8,1.8,0,0,0-1.63.86,4.09,4.09,0,0,0-.55,2.24,3.93,3.93,0,0,0,.54,2.23A1.77,1.77,0,0,0,81.47,87.33Z"/><polyline class="cls-2" points="28.62 12.73 32.32 25.71 19.34 29.41"/><polyline class="cls-2" points="41.6 9.03 45.3 22.02 32.32 25.71 28.62 12.73"/><polyline class="cls-2" points="54.59 5.33 58.29 18.32 45.3 22.02 41.6 9.03"/><polyline class="cls-2" points="71.27 14.62 58.29 18.32 54.59 5.33"/><polyline class="cls-2" points="19.34 29.41 32.32 25.71 36.02 38.7 23.03 42.4"/><rect class="cls-2" x="33.91" y="23.61" width="13.5" height="13.5" transform="translate(-6.76 12.3) rotate(-15.9)"/><rect class="cls-2" x="46.89" y="19.91" width="13.5" height="13.5" transform="translate(-5.25 15.71) rotate(-15.9)"/><polyline class="cls-2" points="74.97 27.6 61.98 31.3 58.29 18.32 71.27 14.62"/><polyline class="cls-2" points="23.03 42.4 36.02 38.7 39.71 51.68 26.73 55.38"/><rect class="cls-2" x="37.61" y="36.59" width="13.5" height="13.5" transform="translate(-10.17 13.81) rotate(-15.9)"/><rect class="cls-2" x="50.59" y="32.89" width="13.5" height="13.5" transform="translate(-8.67 17.22) rotate(-15.9)"/><polyline class="cls-2" points="78.67 40.59 65.68 44.29 61.98 31.3 74.97 27.6"/><polyline class="cls-2" points="26.73 55.38 39.71 51.68 43.41 64.67"/><polyline class="cls-2" points="43.41 64.67 39.71 51.68 52.7 47.98 56.4 60.97"/><polyline class="cls-2" points="56.4 60.97 52.7 47.98 65.68 44.29 69.38 57.27"/><polyline class="cls-2" points="69.38 57.27 65.68 44.29 78.67 40.59"/></svg>