<svg id="Layer_1" data-name="Layer 1" xmlns="http://www.w3.org/2000/svg" viewBox="0 0 96 96"><defs><style>.cls-1{fill:#15c213;}</style></defs><path class="cls-1" d="M27.55,83.14A4.87,4.87,0,0,1,26.79,86a3.18,3.18,0,0,1-2.73,1,4.08,4.08,0,0,1-1.75-.33,2.64,2.64,0,0,1-1.06-.9,3.57,3.57,0,0,1-.53-1.37,9.34,9.34,0,0,1-.16-1.75v-.93H17.67V83.1a6.28,6.28,0,0,0,1.63,4.69A6.44,6.44,0,0,0,24,89.39,8,8,0,0,0,27,88.88a5.15,5.15,0,0,0,2-1.33,5,5,0,0,0,1.06-1.91h0a7.44,7.44,0,0,0,.35-2.15V67.16H27.55Z"/><path class="cls-1" d="M48.13,78.78A9.09,9.09,0,0,0,47,75.86a7,7,0,0,0-2.21-2.21,6.54,6.54,0,0,0-3.5-.87,7.19,7.19,0,0,0-3,.61A6.75,6.75,0,0,0,36,75.1a7.85,7.85,0,0,0-1.54,2.59A9.39,9.39,0,0,0,33.87,81a11.94,11.94,0,0,0,.54,3.31,7,7,0,0,0,1.41,2.63,6.25,6.25,0,0,0,2.33,1.7,7.82,7.82,0,0,0,3.27.62,7.16,7.16,0,0,0,4.45-1.34v0a6.29,6.29,0,0,0,2.29-4H45.59a3.56,3.56,0,0,1-1.38,2.33,4.49,4.49,0,0,1-2.7.77,5.19,5.19,0,0,1-2.21-.43,4.29,4.29,0,0,1-1.55-1.14,3.94,3.94,0,0,1-.89-1.63,6.51,6.51,0,0,1-.24-2H48.39A13.22,13.22,0,0,0,48.13,78.78Zm-11.53.75a5.21,5.21,0,0,1,.4-1.72,4.94,4.94,0,0,1,.93-1.41,4.24,4.24,0,0,1,1.39-1,4.78,4.78,0,0,1,3.59,0,4.42,4.42,0,0,1,1.4.94,4.5,4.5,0,0,1,.93,1.41h0a5.46,5.46,0,0,1,.41,1.73Z"/><path class="cls-1" d="M61.78,81.14a5.94,5.94,0,0,0-1.63-.82c-.63-.2-1.27-.38-1.91-.52l-1.83-.41a12.13,12.13,0,0,1-1.63-.49,4.37,4.37,0,0,1-1.2-.74,1.42,1.42,0,0,1-.47-1.11,1.55,1.55,0,0,1,.31-1,2.24,2.24,0,0,1,.79-.61,4.09,4.09,0,0,1,1.08-.33A7.46,7.46,0,0,1,56.45,75a5.93,5.93,0,0,1,1.26.14,4.22,4.22,0,0,1,1.14.44,2.92,2.92,0,0,1,.86.82,2.57,2.57,0,0,1,.4,1.26H62.7a5.76,5.76,0,0,0-.61-2.4,4.05,4.05,0,0,0-1.38-1.52,5.91,5.91,0,0,0-2-.8,12.76,12.76,0,0,0-2.47-.23,9.8,9.8,0,0,0-2.09.26,6.86,6.86,0,0,0-1.89.8,4.37,4.37,0,0,0-1.36,1.38,3.75,3.75,0,0,0-.54,2,3.46,3.46,0,0,0,.77,2.38A5.05,5.05,0,0,0,53,80.94a12.66,12.66,0,0,0,2.49.73l2.49.58a6.84,6.84,0,0,1,1.9.85,1.7,1.7,0,0,1,.77,1.52,2,2,0,0,1-.37,1.2,2.36,2.36,0,0,1-.93.72,4.32,4.32,0,0,1-1.23.34,9,9,0,0,1-1.27.09,7.81,7.81,0,0,1-1.54-.15A4.47,4.47,0,0,1,54,86.31a2.67,2.67,0,0,1-.95-.94v0a3.75,3.75,0,0,1-.46-1.46H50a5.56,5.56,0,0,0,.61,2.48A4.5,4.5,0,0,0,52.06,88a5.79,5.79,0,0,0,2.1.91,11.08,11.08,0,0,0,2.5.28,12.84,12.84,0,0,0,2.4-.23,6.59,6.59,0,0,0,2.16-.82,4.69,4.69,0,0,0,1.55-1.52,4.35,4.35,0,0,0,.6-2.38,3.71,3.71,0,0,0-.44-1.88A4,4,0,0,0,61.78,81.14Z"/><path class="cls-1" d="M73,75.45V73.16H69.9V68.45H67.3v4.73H64.62v2.29H67.3v10a6,6,0,0,0,.22,1.76,2.18,2.18,0,0,0,.65,1,2.48,2.48,0,0,0,1.16.51,9.25,9.25,0,0,0,1.72.14h2V86.64H71.85c-.4,0-.74,0-1,0a1.22,1.22,0,0,1-.6-.2A.87.87,0,0,1,70,86a3.56,3.56,0,0,1-.07-.74V75.45Z"/><path class="cls-1" d="M67.46,36.18a6.24,6.24,0,0,1-.93,3.28,9.12,9.12,0,0,1,.89,5.71,8.93,8.93,0,0,1-4.35,6.15,17.3,17.3,0,0,1-6.3,1.77c-1.05.15-2.06.29-3,.52A39.89,39.89,0,0,0,46,56.82c-3.57,1.77-7.26,3.59-10.89,3.59a10.16,10.16,0,0,1-5.87-1.85c-3.16-2.2-4.48-6.09-3.67-10.92a23.75,23.75,0,0,1,2.37-6.49l.29-.59a6.19,6.19,0,1,1,6.21,1.56A4.17,4.17,0,0,0,36.17,47a16.19,16.19,0,0,0,5.08-3.28,16.62,16.62,0,0,0,2.15-2.47,6.18,6.18,0,0,1,1.85-11l-6-17.58H68.75L62.81,30.2a6.21,6.21,0,0,1,4.63,6Zm-2.73,0A3.51,3.51,0,0,0,62,32.76a1.91,1.91,0,0,0-.33-.06h0a.38.38,0,0,0-.15,0h-.63s0,0-.05,0l-.21,0h0l-.2,0-.05,0-.17.05h0l-.19.09-.2.08,0,0a1,1,0,0,0-.18.11l-.36.24v0a2.62,2.62,0,0,0-.48.46,3.63,3.63,0,0,0-.39.55,3.48,3.48,0,1,0,6.51,1.73ZM48.12,30.12a4.72,4.72,0,0,1,.65.15L54,19.63l5.25,10.71a4.83,4.83,0,0,1,.62-.18l5-14.73H43.14ZM55.18,35a6.4,6.4,0,0,1,1.73-3.19L54,25.88l-2.86,5.78A6.13,6.13,0,0,1,53,35ZM46.1,32.8a3.46,3.46,0,0,0-2.63,3.37,3.49,3.49,0,0,0,7,0,3.41,3.41,0,0,0-.56-1.91,4.78,4.78,0,0,0-.39-.5h0l-.47-.4h0l-.15-.1h0l-.18-.1a1,1,0,0,0-.17-.1h0L48.28,33h-.05a.75.75,0,0,0-.13-.06H48a.61.61,0,0,0-.18-.05l-.19,0h-.06l-.15,0h-.07l-.14,0h-.54l-.15,0H46.5a.9.9,0,0,0-.16,0h0l-.2,0ZM29,36.19A3.49,3.49,0,1,0,32.5,32.7,3.5,3.5,0,0,0,29,36.19Zm35.65,8.5a6.34,6.34,0,0,0-.28-3.2,6,6,0,0,1-3.12.86,6.18,6.18,0,0,1-6-4.63H53a6.2,6.2,0,0,1-6,4.63,5,5,0,0,1-.94-.07,19.57,19.57,0,0,1-9.52,7.54l-.56.21-.53-.28a7,7,0,0,1-3.88-7.45,6.33,6.33,0,0,1-1-.25c0,.11-.09.21-.15.32a21.23,21.23,0,0,0-2.14,5.72c-.37,2.16-.52,6.09,2.53,8.2a7.23,7.23,0,0,0,4.29,1.37c3,0,6.23-1.6,9.66-3.3a42.25,42.25,0,0,1,8.32-3.42c1.07-.26,2.19-.43,3.25-.58a14.73,14.73,0,0,0,5.31-1.42,6.17,6.17,0,0,0,3-4.25Z"/></svg>