<svg id="Layer_1" data-name="Layer 1" xmlns="http://www.w3.org/2000/svg" xmlns:xlink="http://www.w3.org/1999/xlink" viewBox="0 0 96 96"><defs><style>.cls-1{fill:#253858;}.cls-2{fill:#2684ff;}.cls-3{fill:url(#linear-gradient);}.cls-4{fill:url(#linear-gradient-2);}</style><linearGradient id="linear-gradient" x1="46.95" y1="227.89" x2="39.08" y2="235.76" gradientTransform="translate(0 -189.89)" gradientUnits="userSpaceOnUse"><stop offset="0.18" stop-color="#0052cc"/><stop offset="1" stop-color="#2684ff"/></linearGradient><linearGradient id="linear-gradient-2" x1="49" y1="250.46" x2="56.86" y2="242.61" xlink:href="#linear-gradient"/></defs><g id="Layer_2" data-name="Layer 2"><g id="Blue"><path class="cls-1" d="M11.66,79.84h1.25v6.38c0,1.69-.74,2.86-2.47,2.86a4.42,4.42,0,0,1-1.52-.23V87.63a3.43,3.43,0,0,0,1.3.23c1.07,0,1.44-.63,1.44-1.54Z"/><path class="cls-1" d="M15.2,79.34a.79.79,0,0,1,.84.73v.11a.84.84,0,0,1-1.67,0h0a.78.78,0,0,1,.72-.84ZM14.6,82h1.21v7H14.6Z"/><path class="cls-1" d="M17.62,82h1.17v1.24a2.32,2.32,0,0,1,2.47-1.33v1.17c-1.54-.15-2.47.31-2.47,1.8V89H17.62Z"/><path class="cls-1" d="M26.91,87.77a2.44,2.44,0,0,1-2.37,1.39c-1.85,0-2.8-1.58-2.8-3.63s1-3.64,2.94-3.64a2.31,2.31,0,0,1,2.23,1.38V82h1.2v7h-1.2Zm-2,.28a2,2,0,0,0,2-2.24v-.58C26.91,83.69,26,83,25,83c-1.36,0-2.06.9-2.06,2.52s.66,2.54,1.92,2.54Z"/><path class="cls-1" d="M35.23,89.16a6.44,6.44,0,0,1-3.31-.71V87.17a7.91,7.91,0,0,0,3.38.77c1.4,0,1.91-.54,1.91-1.36S36.7,85.34,35,84.91c-2.07-.51-3-1.22-3-2.72s1.1-2.49,3.23-2.49a5.69,5.69,0,0,1,2.82.66v1.25a5.74,5.74,0,0,0-2.87-.69c-1.2,0-1.91.42-1.91,1.25s.58,1.13,2.21,1.55c2,.49,3,1.11,3,2.77S37.5,89.16,35.23,89.16Z"/><path class="cls-1" d="M39.53,85.51c0-2.1,1.23-3.62,3.32-3.62s3.31,1.53,3.31,3.62-1.22,3.65-3.31,3.65S39.53,87.61,39.53,85.51Zm1.17,0c0,1.33.67,2.54,2.15,2.54S45,86.84,45,85.51,44.34,83,42.85,83s-2.15,1.16-2.15,2.49Z"/><path class="cls-1" d="M49.22,82H51v1.12H49.22V89H48.05V83.15H46.9V82H48v-.76a2,2,0,0,1,2.23-2.18,3,3,0,0,1,.8.11v1.12a3.77,3.77,0,0,0-.76-.08,1,1,0,0,0-1.11,1.07Z"/><path class="cls-1" d="M55.08,87.85a4,4,0,0,0,.76-.1v1.16A2.76,2.76,0,0,1,55,89a2,2,0,0,1-2.23-2.18V83.15H51.66V82h1.13V80.55H54V82h1.85v1.12H54v3.66A1,1,0,0,0,55.08,87.85Z"/><path class="cls-1" d="M56.18,82h1.33l2,5.94,2-5.94h1.15l2,5.94,2-5.94h1.33l-2.57,7H64l-1.2-3.38-.64-2.15-.63,2.15L60.28,89H58.73Z"/><path class="cls-1" d="M73.59,87.77a2.44,2.44,0,0,1-2.36,1.39c-1.86,0-2.8-1.58-2.8-3.63s1-3.64,2.93-3.64a2.3,2.3,0,0,1,2.23,1.38V82H74.8v7H73.59Zm-2,.28a2,2,0,0,0,2-2.24v-.58c0-1.54-.88-2.24-1.9-2.24-1.35,0-2.06.9-2.06,2.52s.68,2.54,1.92,2.54Z"/><path class="cls-1" d="M76.62,82H77.8v1.24a2.32,2.32,0,0,1,2.47-1.33v1.17c-1.54-.15-2.47.31-2.47,1.8V89H76.62Z"/><path class="cls-1" d="M84.51,89.16c-2.62,0-3.76-1.51-3.76-3.65s1.18-3.62,3.31-3.62,3,1.5,3,3.62v.54H82c.17,1.19,1,2,2.58,2a6.55,6.55,0,0,0,2.14-.37v1.11A5.39,5.39,0,0,1,84.51,89.16ZM81.94,85h3.91c-.07-1.3-.66-2-1.85-2s-1.93.82-2.06,2Z"/></g></g><path class="cls-2" d="M66,48.26l-16.4-16.4L48,30.29h0L35.66,42.63h0L30,48.26a1.53,1.53,0,0,0,0,2.15L41.29,61.67,48,68.38,60.34,56l.19-.19L66,50.41A1.53,1.53,0,0,0,66,48.26ZM48,55l-5.63-5.63L48,43.71l5.63,5.63Z"/><path class="cls-3" d="M48,43.71a9.49,9.49,0,0,1-.05-13.37L35.56,42.68l6.71,6.7Z"/><path class="cls-4" d="M53.58,49.29,48,54.92a9.45,9.45,0,0,1,0,13.41h0L60.34,55.94Z"/></svg>