<svg id="Layer_1" data-name="Layer 1" xmlns="http://www.w3.org/2000/svg" viewBox="0 0 96 96"><defs><style>.cls-1{fill:#4b5666;}.cls-2{fill:#fbd35c;}.cls-3{fill:#a4d970;}.cls-4{fill:#a1bde3;}.cls-5{fill:#fa7977;}.cls-6{fill:#fff;}</style></defs><circle class="cls-1" cx="48" cy="48" r="43.23"/><path class="cls-2" d="M18.9,18.9a41.14,41.14,0,0,1,58.2,0L48,48Z"/><path class="cls-3" d="M77.1,18.9a41.14,41.14,0,0,1,0,58.2L48,48Z"/><path class="cls-4" d="M77.1,77.1a41.14,41.14,0,0,1-58.2,0L48,48Z"/><path class="cls-5" d="M18.9,77.1a41.14,41.14,0,0,1,0-58.2L48,48Z"/><circle class="cls-1" cx="48" cy="48" r="20.77"/><path class="cls-6" d="M37.12,46.5l-1.5-3.92h0c0,.31,0,.68,0,1.1V46.5h-.48V42.07h.78l1.4,3.65h0l1.42-3.65h.76V46.5H39V43.65c0-.33,0-.69,0-1.07h0L37.53,46.5Z"/><path class="cls-6" d="M44.6,44.28A2.43,2.43,0,0,1,44.06,46a1.88,1.88,0,0,1-1.49.61,1.91,1.91,0,0,1-1.51-.6,2.43,2.43,0,0,1-.53-1.69,2.38,2.38,0,0,1,.53-1.67,1.92,1.92,0,0,1,1.51-.6,1.89,1.89,0,0,1,1.49.61A2.41,2.41,0,0,1,44.6,44.28Zm-3.53,0a2.06,2.06,0,0,0,.39,1.36,1.55,1.55,0,0,0,2.22,0,2.68,2.68,0,0,0,0-2.72,1.37,1.37,0,0,0-1.11-.46,1.34,1.34,0,0,0-1.11.47A2.05,2.05,0,0,0,41.07,44.28Z"/><path class="cls-6" d="M49.12,44.24a2.24,2.24,0,0,1-.6,1.68,2.36,2.36,0,0,1-1.71.58H45.58V42.07h1.36a2,2,0,0,1,2.18,2.17Zm-.55,0a1.76,1.76,0,0,0-.43-1.3,1.71,1.71,0,0,0-1.29-.44H46.1v3.53h.63a1.91,1.91,0,0,0,1.38-.45A1.79,1.79,0,0,0,48.57,44.26Z"/><path class="cls-6" d="M52.57,46.5H50.1V42.07h2.47v.46h-2V44h1.83v.45H50.62V46h2v.46Z"/><path class="cls-6" d="M54.07,44.66V46.5h-.52V42.07h1.21a2,2,0,0,1,1.21.31,1.15,1.15,0,0,1,.39.94,1.18,1.18,0,0,1-.89,1.19l1.2,2h-.61L55,44.66Zm0-.44h.7a1.25,1.25,0,0,0,.8-.22.8.8,0,0,0,.25-.65.72.72,0,0,0-.26-.63,1.37,1.37,0,0,0-.83-.2h-.66v1.7Z"/><path class="cls-6" d="M60.84,46.5h-.59l-2.42-3.72h0c0,.44,0,.84,0,1.2V46.5h-.48V42.07H58l2.42,3.7h0c0-.05,0-.23,0-.52s0-.51,0-.64V42.07h.48V46.5Z"/><path class="cls-6" d="M43,53.94l-.55-1.41H40.65l-.54,1.41h-.52l1.75-4.45h.43l1.74,4.45Zm-.72-1.87-.51-1.38c-.07-.17-.13-.38-.21-.63a4,4,0,0,1-.19.63l-.52,1.38Z"/><path class="cls-6" d="M46.06,51.62h1.51v2.15a5.8,5.8,0,0,1-.72.17A5.17,5.17,0,0,1,46,54a2,2,0,0,1-1.56-.6,2.34,2.34,0,0,1-.56-1.68,2.6,2.6,0,0,1,.27-1.21,1.9,1.9,0,0,1,.8-.79,2.61,2.61,0,0,1,1.22-.27,3.24,3.24,0,0,1,1.32.26l-.2.45a2.92,2.92,0,0,0-1.15-.25,1.64,1.64,0,0,0-1.26.48,1.82,1.82,0,0,0-.46,1.33,1.92,1.92,0,0,0,.44,1.36,1.68,1.68,0,0,0,1.28.47,3.82,3.82,0,0,0,.9-.11V52.08h-1v-.46Z"/><path class="cls-6" d="M48.63,53.94V49.51h.51v4.43Z"/><path class="cls-6" d="M50.36,53.94V49.51h.51v4h2v.47Z"/><path class="cls-6" d="M56,53.94H53.58V49.51H56V50H54.09v1.42h1.83v.46H54.09v1.63H56Z"/></svg>