<svg id="Layer_1" data-name="Layer 1" xmlns="http://www.w3.org/2000/svg" viewBox="0 0 96 96"><defs><style>.cls-1{fill:#1c1e21;}.cls-2{fill:#336791;}.cls-3{fill:#fff;}</style></defs><path class="cls-1" d="M11,79.07h4.4a4.38,4.38,0,0,1,1.53.25A3,3,0,0,1,18,80a3.15,3.15,0,0,1,.89,2.28,3.38,3.38,0,0,1-.23,1.3,2.71,2.71,0,0,1-.65,1,3.11,3.11,0,0,1-1.05.65,4.17,4.17,0,0,1-1.41.23H13.08v3.62H11Zm2.1,4.74h2.1a1.68,1.68,0,0,0,1.22-.41,1.47,1.47,0,0,0,.41-1.09,1.38,1.38,0,0,0-.42-1.09,1.66,1.66,0,0,0-1.18-.38H13.08Z"/><path class="cls-1" d="M22.94,89.29A3.79,3.79,0,0,1,21.41,89a3.53,3.53,0,0,1-1.95-2,4.25,4.25,0,0,1,0-3,3.53,3.53,0,0,1,1.95-2,4.18,4.18,0,0,1,3.06,0,3.53,3.53,0,0,1,2,2,4.25,4.25,0,0,1,0,3,3.53,3.53,0,0,1-2,2A3.79,3.79,0,0,1,22.94,89.29Zm0-1.45a1.56,1.56,0,0,0,1.35-.65,2.82,2.82,0,0,0,.47-1.69,2.85,2.85,0,0,0-.47-1.7,1.73,1.73,0,0,0-2.7,0,2.85,2.85,0,0,0-.47,1.7,2.82,2.82,0,0,0,.47,1.69A1.56,1.56,0,0,0,22.94,87.84Z"/><path class="cls-1" d="M30.49,89.29a3.78,3.78,0,0,1-2.43-.69,2.49,2.49,0,0,1-.93-1.84h1.76a1.31,1.31,0,0,0,.51.91,1.84,1.84,0,0,0,1.06.28,1.76,1.76,0,0,0,1-.22.69.69,0,0,0,.34-.61.52.52,0,0,0-.16-.4,1.07,1.07,0,0,0-.42-.25,3.63,3.63,0,0,0-.6-.17l-.71-.13c-.32-.06-.64-.14-.94-.22a3,3,0,0,1-.81-.37,1.79,1.79,0,0,1-.58-.61,2,2,0,0,1-.21-1,2.12,2.12,0,0,1,.22-1,2.05,2.05,0,0,1,.62-.72,2.82,2.82,0,0,1,.93-.42,4.27,4.27,0,0,1,1.15-.14,3.34,3.34,0,0,1,2.2.64,2.5,2.5,0,0,1,.88,1.74H31.62a1.07,1.07,0,0,0-.42-.82,1.7,1.7,0,0,0-1-.23,1.65,1.65,0,0,0-.89.2.63.63,0,0,0-.34.59.47.47,0,0,0,.17.38,1.64,1.64,0,0,0,.44.22,4.18,4.18,0,0,0,.63.15,7.34,7.34,0,0,1,.74.14c.29.06.6.14.9.22a2.78,2.78,0,0,1,.82.37,1.85,1.85,0,0,1,.59.65,2,2,0,0,1,.22,1,2.08,2.08,0,0,1-.22,1,2.16,2.16,0,0,1-.63.72,2.89,2.89,0,0,1-.95.45A4.29,4.29,0,0,1,30.49,89.29Z"/><path class="cls-1" d="M33.8,81.9h1V79.66h1.86V81.9h1.23v1.26H36.66V87a.68.68,0,0,0,.2.56.81.81,0,0,0,.51.15h.56v1.4h-.3l-.38,0h-.51a3.25,3.25,0,0,1-.69-.08,1.72,1.72,0,0,1-.62-.27,1.49,1.49,0,0,1-.46-.53,1.93,1.93,0,0,1-.17-.84V83.16h-1Z"/><path class="cls-1" d="M42,91.53a4.07,4.07,0,0,1-2.35-.59,2.34,2.34,0,0,1-1-1.65H40.5a1.06,1.06,0,0,0,.44.57,1.78,1.78,0,0,0,1,.23q1.59,0,1.59-1.5v-.78h0a2.76,2.76,0,0,1-.75.6,2.32,2.32,0,0,1-1.12.24,3.17,3.17,0,0,1-1.17-.23,3.13,3.13,0,0,1-1-.67,3.57,3.57,0,0,1-1-2.53,4.45,4.45,0,0,1,.23-1.45,3.39,3.39,0,0,1,.65-1.11,2.66,2.66,0,0,1,1-.71,3.17,3.17,0,0,1,1.25-.24,2.52,2.52,0,0,1,1.17.25,2.31,2.31,0,0,1,.82.7h0V81.9h1.83v6.64a3.35,3.35,0,0,1-.22,1.29,2.48,2.48,0,0,1-.63.89,2.78,2.78,0,0,1-1.12.62A5.28,5.28,0,0,1,42,91.53Zm0-4.41a1.82,1.82,0,0,0,.77-.15,1.34,1.34,0,0,0,.52-.42,1.63,1.63,0,0,0,.3-.62,2.57,2.57,0,0,0,.1-.75,2.66,2.66,0,0,0-.1-.75,1.74,1.74,0,0,0-.32-.62,1.46,1.46,0,0,0-.53-.42,1.64,1.64,0,0,0-.76-.16,1.44,1.44,0,0,0-1.16.53,2.11,2.11,0,0,0-.45,1.43,2.08,2.08,0,0,0,.45,1.43A1.46,1.46,0,0,0,41.94,87.12Z"/><path class="cls-1" d="M48.48,83.05h0a2.61,2.61,0,0,1,.73-.92,1.62,1.62,0,0,1,1-.31,1.64,1.64,0,0,1,.45.05v1.67h0a1.94,1.94,0,0,0-1.54.41,2,2,0,0,0-.6,1.63v3.5H46.64V81.9h1.84Z"/><path class="cls-1" d="M54.72,89.29A4,4,0,0,1,53.13,89,3.48,3.48,0,0,1,52,88.2,3.4,3.4,0,0,1,51.24,87,4.52,4.52,0,0,1,51,85.49,4,4,0,0,1,51.26,84,3.43,3.43,0,0,1,52,82.8,3.58,3.58,0,0,1,53.1,82a3.8,3.8,0,0,1,3,0,3.11,3.11,0,0,1,1.11.89,3.91,3.91,0,0,1,.68,1.37A6.34,6.34,0,0,1,58.08,86H52.87a2.36,2.36,0,0,0,.57,1.32,1.65,1.65,0,0,0,1.27.47,1.49,1.49,0,0,0,.89-.23,1.33,1.33,0,0,0,.49-.65H58a2.93,2.93,0,0,1-.36.9,2.66,2.66,0,0,1-.67.75,3.33,3.33,0,0,1-1,.52A4.1,4.1,0,0,1,54.72,89.29Zm-.15-6.11a1.48,1.48,0,0,0-1.15.41,2.09,2.09,0,0,0-.52,1.13h3.19a1.75,1.75,0,0,0-.45-1.12A1.45,1.45,0,0,0,54.57,83.18Z"/><path class="cls-1" d="M63,89.31a5.07,5.07,0,0,1-3.15-.86A3.1,3.1,0,0,1,58.67,86h2a1.79,1.79,0,0,0,.64,1.3,2.79,2.79,0,0,0,1.61.38,3.51,3.51,0,0,0,.74-.07,2.16,2.16,0,0,0,.62-.22,1.38,1.38,0,0,0,.43-.4,1.14,1.14,0,0,0,.16-.6,1,1,0,0,0-.18-.6,1.36,1.36,0,0,0-.5-.4,3.79,3.79,0,0,0-.77-.28l-1-.24c-.45-.11-.88-.22-1.3-.35A3.65,3.65,0,0,1,60,84a2.46,2.46,0,0,1-.75-.82A2.51,2.51,0,0,1,59,81.89a2.68,2.68,0,0,1,.29-1.3,2.57,2.57,0,0,1,.79-.94,3.76,3.76,0,0,1,1.21-.57,6.18,6.18,0,0,1,1.54-.19,4.36,4.36,0,0,1,2.73.8A3.1,3.1,0,0,1,66.65,82h-2a1.51,1.51,0,0,0-.61-1.13,2.26,2.26,0,0,0-1.32-.38,2.43,2.43,0,0,0-1.32.32,1,1,0,0,0-.49.86.93.93,0,0,0,.14.51,1.29,1.29,0,0,0,.4.36,2.93,2.93,0,0,0,.68.26c.27.08.59.16,1,.24s1,.24,1.45.37a4.83,4.83,0,0,1,1.19.54,2.41,2.41,0,0,1,.8.85,2.64,2.64,0,0,1,.3,1.33,3,3,0,0,1-.3,1.36,2.77,2.77,0,0,1-.81,1,3.93,3.93,0,0,1-1.23.61A5.55,5.55,0,0,1,63,89.31Z"/><path class="cls-1" d="M75,88.62a4.76,4.76,0,0,1-1.17.51,5.14,5.14,0,0,1-1.39.18,4.87,4.87,0,0,1-2-.39A4.41,4.41,0,0,1,69,87.83,4.79,4.79,0,0,1,68,86.18,6.53,6.53,0,0,1,68,82,4.93,4.93,0,0,1,69,80.36a4.41,4.41,0,0,1,1.52-1.09,4.87,4.87,0,0,1,2-.39,5,5,0,0,1,2,.39A4.33,4.33,0,0,1,76,80.36a4.93,4.93,0,0,1,1,1.66,6.09,6.09,0,0,1,.34,2.08A6.23,6.23,0,0,1,77,86a5.19,5.19,0,0,1-.81,1.57l1.06,1-1,1.13Zm-2.54-1a2.52,2.52,0,0,0,1.17-.26l-.88-.82,1-1.12.91.84a4.06,4.06,0,0,0,.35-1,6.31,6.31,0,0,0,.11-1.18A6.18,6.18,0,0,0,75,82.7a3.53,3.53,0,0,0-.5-1.13,2.36,2.36,0,0,0-.85-.75,2.41,2.41,0,0,0-1.19-.28,2.46,2.46,0,0,0-2.07,1,3.34,3.34,0,0,0-.51,1.13,5.81,5.81,0,0,0,0,2.79,3.25,3.25,0,0,0,.51,1.13,2.47,2.47,0,0,0,.86.75A2.6,2.6,0,0,0,72.49,87.64Z"/><path class="cls-1" d="M78.37,79.07h2v8.32h4.7v1.69H78.37Z"/><g id="Layer_3"><path d="M59.52,55.4c.37-3.08.26-3.53,2.55-3l.58.05a13.26,13.26,0,0,0,5.42-.91c2.91-1.36,4.64-3.61,1.77-3-6.56,1.35-7-.87-7-.87,6.92-10.27,9.82-23.3,7.32-26.49-6.81-8.71-18.6-4.59-18.8-4.48h-.06a23.66,23.66,0,0,0-4.38-.46A10.83,10.83,0,0,0,40,18.27s-21-8.66-20,10.9c.2,4.16,6,31.49,12.83,23.24,2.51-3,4.93-5.57,4.93-5.57a6.36,6.36,0,0,0,4.16,1.06l.12-.1A4.76,4.76,0,0,0,42,49c-1.76,2-1.24,2.32-4.78,3.05s-1.48,2-.1,2.39a7.26,7.26,0,0,0,8.11-2.63l-.1.41c.69.56.64,4,.74,6.44a23.3,23.3,0,0,0,.76,6.1c.5,1.35,1.1,4.83,5.74,3.83,3.89-.83,6.86-2,7.13-13.17"/><path d="M50.88,71.18a6.12,6.12,0,0,1-4.33-1.61A8.2,8.2,0,0,1,44.49,66c0-.14-.09-.28-.12-.36a24.44,24.44,0,0,1-.91-6.85c0-.43,0-.9-.05-1.37,0-.3,0-.64,0-1a10.51,10.51,0,0,1-6.84.4A6.77,6.77,0,0,1,34.59,56a4.3,4.3,0,0,1-1-.89,5,5,0,0,1-4.93,1.07c-1.86-.62-3.52-2.35-5.07-5.29a47.06,47.06,0,0,1-3.13-8A75.11,75.11,0,0,1,17.5,29.29c-.31-6.16,1.36-10.57,4.95-13.11,3-2.09,7-2.74,12.06-1.91a33.08,33.08,0,0,1,5.15,1.29A13.57,13.57,0,0,1,47,13.77a26.31,26.31,0,0,1,4.19.38,24.13,24.13,0,0,1,7.16-1,17.1,17.1,0,0,1,13.77,6.48c1.23,1.57,2.29,5.05.31,12.7a56.21,56.21,0,0,1-5.95,14.16,16.46,16.46,0,0,0,2.91-.39,5.51,5.51,0,0,1,1.9-.1,2.85,2.85,0,0,1,2.37,1.91c1,3-3.21,5.2-4.52,5.81a15.64,15.64,0,0,1-6.55,1.13h-.1l-.4,0,0,.3-.06.46c-.15,5.68-1,9.29-2.65,11.68s-4.23,3.24-6.4,3.7A9.66,9.66,0,0,1,50.88,71.18ZM46.67,50.3c1.39,1.11,1.51,3.14,1.61,6.93,0,.45,0,.9,0,1.32a24,24,0,0,0,.61,5.34c.07.18.12.36.19.55.5,1.55.71,2.19,2.75,1.75,1.8-.39,2.73-.73,3.44-1.74,1.06-1.51,1.65-4.58,1.76-9.11l2.44.06-2.42-.29c0-.2,0-.39.06-.56.22-1.82.38-3.25,1.68-4.18a3.72,3.72,0,0,1,2.54-.59,3.5,3.5,0,0,1-.94-1.67l-.2-1,.57-.85a51.18,51.18,0,0,0,6.84-15.11c1.49-5.75.84-8.18.58-8.52-5.42-6.92-14.84-4.1-15.88-3.76l-.18.1-.91.17-.47-.1a21.29,21.29,0,0,0-3.92-.4,8.36,8.36,0,0,0-5.41,1.58l-1.11.84-1.29-.53c-2.52-1-9.92-3.11-13.8-.36-2.14,1.51-3.11,4.5-2.89,8.88a71.63,71.63,0,0,0,2.8,12.68c2.34,7.52,4.39,9.61,5,9.78a2.18,2.18,0,0,0,.74-.66c2.54-3,4.94-5.58,5-5.69l1.41-1.48,1.7,1.13a4,4,0,0,0,1.89.67L45,42l-.59,6a2.46,2.46,0,0,0,0,.56l.18,1.14-.77.86,0,0,1.89.88Zm18.09-4Z"/><path class="cls-2" d="M69.84,48.49c-6.56,1.35-7-.87-7-.87,6.92-10.27,9.82-23.3,7.32-26.49-6.81-8.71-18.6-4.59-18.8-4.48h-.06a23.66,23.66,0,0,0-4.38-.46A10.83,10.83,0,0,0,40,18.27S19,9.61,19.93,29.17c.21,4.16,6,31.49,12.84,23.24,2.51-3,4.93-5.57,4.93-5.57a6.36,6.36,0,0,0,4.16,1.06l.12-.1A4.76,4.76,0,0,0,42,49c-1.77,2-1.25,2.32-4.78,3.05s-1.48,2-.11,2.39a7.27,7.27,0,0,0,8.12-2.63l-.1.41c.69.56,1.18,3.61,1.09,6.38s-.13,4.67.41,6.16,1.09,4.83,5.74,3.83c3.89-.83,5.9-3,6.18-6.59.2-2.55.65-2.18.68-4.46l.36-1.09c.41-3.46.06-4.58,2.46-4.06l.58.05a13.23,13.23,0,0,0,5.42-.91c2.91-1.36,4.64-3.61,1.77-3Z"/><path class="cls-3" d="M51.11,69.67c-3.91,0-5.15-3.09-5.66-4.36-.74-1.86-.9-8.8-.73-14.85a.81.81,0,0,1,1.62,0c-.19,6.74.08,12.85.62,14.21.84,2.09,2.11,3.93,5.71,3.16s4.7-2,5.28-5.35c.44-2.56,1.32-9.85,1.42-11.29a.82.82,0,0,1,.88-.75.8.8,0,0,1,.74.87c-.11,1.5-1,8.79-1.44,11.45-.68,4-2.46,5.78-6.54,6.66A9.67,9.67,0,0,1,51.11,69.67Z"/><path class="cls-3" d="M30.1,54.68a3.14,3.14,0,0,1-1-.17c-2.54-.84-4.95-4.95-7.17-12.22a73.38,73.38,0,0,1-2.84-13.16c-.28-5.57,1.16-9.51,4.27-11.72C26,15.57,29.61,15,34.21,15.75a30.09,30.09,0,0,1,6.06,1.63.81.81,0,0,1-.62,1.5c-.12-.05-9.95-4-15.37-.14-2.62,1.87-3.83,5.33-3.58,10.31a72.51,72.51,0,0,0,2.78,12.77c2,6.45,4.2,10.51,6.12,11.15.3.1,1.2.4,2.5-1.16,2.49-3,4.79-5.41,4.81-5.43a.81.81,0,0,1,1.18,1.12s-2.28,2.39-4.75,5.35A4.23,4.23,0,0,1,30.1,54.68Z"/><path class="cls-3" d="M62.79,48.35a.84.84,0,0,1-.46-.13.82.82,0,0,1-.22-1.13c7-10.36,9.45-22.87,7.35-25.54a13.68,13.68,0,0,0-11-5.23,20.68,20.68,0,0,0-6.72,1l-.12,0a.8.8,0,0,1-1-.43.81.81,0,0,1,.32-1,20.93,20.93,0,0,1,7.33-1.18,15.52,15.52,0,0,1,12.53,5.85A7.26,7.26,0,0,1,71.8,25.1a29.75,29.75,0,0,1-1,6.74A54.32,54.32,0,0,1,63.46,48,.81.81,0,0,1,62.79,48.35Z"/><path class="cls-3" d="M63.14,53.16a6.15,6.15,0,0,1-2.94-.56,1.58,1.58,0,0,1-.83-1.27c-.17-3.11,1.49-3.73,2.42-4l-.43-.56a11.27,11.27,0,0,1-1.79-2.87c-.08-.21-.35-.69-.66-1.24-1.69-3-5.21-9.34-2.93-12.59,1-1.5,3.1-2.1,6.14-1.79a18.38,18.38,0,0,0-3.28-5.62,15.7,15.7,0,0,0-12-5.73,9.76,9.76,0,0,0-7.4,2.77c-4.19,4.23-4.05,11.93-4.05,12a.81.81,0,1,1-1.62,0c0-.34-.17-8.46,4.52-13.19a11.32,11.32,0,0,1,8.58-3.25A17.23,17.23,0,0,1,60,21.5a17.27,17.27,0,0,1,4,7.45A.91.91,0,0,1,63.26,30H63c-3.71-.59-5.13.2-5.66,1-1.69,2.41,1.61,8.34,3,10.87.36.65.62,1.12.74,1.41a9.86,9.86,0,0,0,1.56,2.48,4.31,4.31,0,0,1,.94,1.56c.07.12,1,1.34,6.06.29,1.33-.27,2.14,0,2.39.73.48,1.46-2.18,3.14-3.65,3.82A13.73,13.73,0,0,1,63.14,53.16Zm-2.15-2a5.06,5.06,0,0,0,2.69.34,11.74,11.74,0,0,0,4-.83A9.1,9.1,0,0,0,70,49.2h0c-3.34.69-5.7.6-7-.28l-.23-.16-.34.1C61.61,49.07,60.9,49.27,61,51.18Z"/><path class="cls-3" d="M39.48,55.46a10.88,10.88,0,0,1-2.59-.33c-.26-.07-2.52-.67-2.49-2.12S36.32,51.3,37,51.15c2.5-.51,2.66-.72,3.44-1.7.23-.3.51-.66.9-1.1h0a2.42,2.42,0,0,1,3.05-.73,3.29,3.29,0,0,1,1.79,2.15,2.77,2.77,0,0,1-.35,2.41A7.56,7.56,0,0,1,39.48,55.46ZM36.2,53.09a3.63,3.63,0,0,0,1.09.46c2.16.54,5.18.58,7.25-2.32a1.23,1.23,0,0,0,.11-1,1.76,1.76,0,0,0-.85-1.09c-.44-.18-.69-.28-1.22.32h0c-.35.39-.61.72-.84,1-1,1.26-1.44,1.69-4.38,2.29A5.14,5.14,0,0,0,36.2,53.09ZM42,48.89Z"/><path class="cls-3" d="M41.86,49.67a.81.81,0,0,1-.8-.69,3.11,3.11,0,0,1,0-.32,7.39,7.39,0,0,1-5.14-2.34,8.43,8.43,0,0,1-2.23-7.08,32.81,32.81,0,0,0,.17-6.68c0-.38,0-.65,0-.84s0-.9,2.15-2a11.77,11.77,0,0,1,3.91-1.22c2.76-.28,4.57.95,5.12,3.46,1.45,6.72.11,9.69-.87,11.86-.18.4-.35.78-.48,1.15l-.13.33a8.11,8.11,0,0,0-.82,3.43.8.8,0,0,1-.67.92ZM35.41,32c0,.13,0,.31,0,.5a34.76,34.76,0,0,1-.18,7,6.83,6.83,0,0,0,1.79,5.73A5.81,5.81,0,0,0,41.2,47a19.88,19.88,0,0,1,.76-2.3l.12-.33c.16-.41.34-.82.53-1.24.94-2.08,2.1-4.66.76-10.86a2.46,2.46,0,0,0-1.9-2.12C39.23,29.68,36.09,31.36,35.41,32Z"/><path class="cls-3" d="M39.88,31.61c0,.27.49,1,1.17,1.07a1.26,1.26,0,0,0,1.3-.72c0-.27-.48-.56-1.17-.66s-1.26.05-1.3.31Z"/><path class="cls-3" d="M41.2,33H41a1.84,1.84,0,0,1-1.16-.72,1.06,1.06,0,0,1-.24-.66h0a.54.54,0,0,1,.22-.34,2.06,2.06,0,0,1,1.39-.2,2.79,2.79,0,0,1,1,.3c.44.24.47.52.45.66A1.51,1.51,0,0,1,41.2,33Zm-1.05-1.3a1.32,1.32,0,0,0,.94.75,1.06,1.06,0,0,0,1-.48,1.65,1.65,0,0,0-.93-.36A1.6,1.6,0,0,0,40.15,31.66Z"/><path class="cls-3" d="M60.66,31.07a1.47,1.47,0,0,1-1.17,1.07,1.27,1.27,0,0,1-1.31-.73c0-.26.49-.55,1.17-.65s1.27,0,1.31.31Z"/><path class="cls-3" d="M59.33,32.28a1.36,1.36,0,0,1-1.28-.85c-.06-.4.6-.71,1.28-.8s1.4,0,1.46.42h0a1,1,0,0,1-.35.71,1.64,1.64,0,0,1-.93.51Zm.45-1.42-.41,0c-.71.1-1.07.39-1,.51a1.14,1.14,0,0,0,1.15.6,1.34,1.34,0,0,0,.77-.43.8.8,0,0,0,.28-.48C60.51,31,60.24,30.86,59.78,30.86Z"/><path class="cls-3" d="M61.64,46.38a.85.85,0,0,1-.45-.14A.82.82,0,0,1,61,45.11c1.58-2.37,1.29-4.79,1-7.14a19.42,19.42,0,0,1-.21-3,20.13,20.13,0,0,1,.29-2.7,14.11,14.11,0,0,0,.23-3,.81.81,0,0,1,.76-.85.82.82,0,0,1,.86.77,14.72,14.72,0,0,1-.25,3.29,19.74,19.74,0,0,0-.27,2.5,18.53,18.53,0,0,0,.2,2.8c.31,2.52.65,5.37-1.27,8.24A.84.84,0,0,1,61.64,46.38Z"/></g></svg>