<svg id="Layer_1" data-name="Layer 1" xmlns="http://www.w3.org/2000/svg" viewBox="0 0 96 96"><defs><style>.cls-1{fill:#61dafb;}.cls-2{fill:#00d8ff;}</style></defs><path class="cls-1" d="M77.26,38.75c0-3.88-4.85-7.56-12.3-9.83,1.72-7.59,1-13.63-2.41-15.56a5.24,5.24,0,0,0-2.67-.67v2.66a2.79,2.79,0,0,1,1.36.31c1.62.93,2.33,4.48,1.78,9-.13,1.12-.35,2.31-.61,3.51a59,59,0,0,0-7.57-1.3,56.4,56.4,0,0,0-5-6c3.89-3.62,7.54-5.6,10-5.6V12.68h0c-3.28,0-7.57,2.34-11.91,6.39-4.35-4-8.64-6.34-11.92-6.34v2.66c2.47,0,6.13,2,10,5.56a56.07,56.07,0,0,0-4.93,5.95,57.29,57.29,0,0,0-7.59,1.31c-.27-1.19-.47-2.35-.62-3.46-.56-4.55.14-8.1,1.75-9a2.67,2.67,0,0,1,1.37-.31V12.74h0a5.28,5.28,0,0,0-2.7.67c-3.35,1.93-4.1,8-2.37,15.52-7.42,2.29-12.25,6-12.25,9.82S23.59,46.3,31,48.58c-1.72,7.58-1,13.62,2.41,15.55a5.16,5.16,0,0,0,2.68.67c3.28,0,7.58-2.34,11.92-6.39,4.34,4,8.63,6.34,11.92,6.34a5.34,5.34,0,0,0,2.69-.66c3.35-1.94,4.11-8,2.38-15.53C72.43,46.29,77.26,42.61,77.26,38.75Zm-15.53-8c-.44,1.54-1,3.12-1.61,4.71-.49-1-1-1.91-1.56-2.86s-1.14-1.89-1.72-2.79C58.53,30.1,60.17,30.41,61.73,30.79Zm-5.46,12.7c-.93,1.61-1.89,3.14-2.88,4.56-1.78.16-3.58.24-5.39.24s-3.6-.08-5.37-.23q-1.49-2.13-2.89-4.53c-.9-1.56-1.73-3.15-2.48-4.75.74-1.6,1.58-3.2,2.47-4.76s1.89-3.14,2.88-4.56c1.78-.15,3.58-.23,5.39-.23s3.6.08,5.37.22c1,1.42,2,2.94,2.89,4.54s1.73,3.15,2.48,4.74C58,40.33,57.16,41.93,56.27,43.49Zm3.85-1.55c.64,1.6,1.19,3.2,1.65,4.75-1.57.38-3.21.71-4.92,1,.59-.92,1.17-1.87,1.72-2.83S59.63,42.9,60.12,41.94ZM48,54.67a47.42,47.42,0,0,1-3.31-3.81c1.07,0,2.17.08,3.28.08s2.23,0,3.31-.08A45.34,45.34,0,0,1,48,54.67Zm-8.87-7c-1.7-.25-3.33-.56-4.89-.95.44-1.54,1-3.12,1.61-4.71.49,1,1,1.91,1.56,2.86S38.56,46.74,39.15,47.65ZM48,22.82a49.77,49.77,0,0,1,3.32,3.82c-1.07-.05-2.17-.09-3.28-.09s-2.23,0-3.32.09A49.57,49.57,0,0,1,48,22.82Zm-8.82,7c-.59.92-1.17,1.86-1.72,2.82s-1.06,1.91-1.55,2.87a48.87,48.87,0,0,1-1.65-4.75C35.78,30.42,37.43,30.1,39.14,29.85ZM28.34,44.78c-4.22-1.8-7-4.16-7-6s2.74-4.25,7-6c1-.44,2.15-.84,3.3-1.21a57,57,0,0,0,2.69,7.27A56.15,56.15,0,0,0,31.68,46C30.5,45.63,29.38,45.22,28.34,44.78Zm6.42,17c-1.62-.93-2.33-4.47-1.78-9,.13-1.12.35-2.3.61-3.51a57.29,57.29,0,0,0,7.57,1.3,57.59,57.59,0,0,0,5,6c-3.89,3.61-7.54,5.59-10,5.59A2.86,2.86,0,0,1,34.76,61.83Zm28.3-9.09c.56,4.56-.14,8.1-1.75,9a2.58,2.58,0,0,1-1.37.31c-2.47,0-6.13-2-10-5.56a56.07,56.07,0,0,0,4.93-6,57.29,57.29,0,0,0,7.59-1.31C62.71,50.47,62.92,51.63,63.06,52.74Zm4.59-8c-1,.44-2.15.84-3.31,1.21a57.5,57.5,0,0,0-2.68-7.27,56.15,56.15,0,0,0,2.65-7.23c1.18.37,2.3.78,3.35,1.22,4.22,1.8,7,4.16,7,6S71.87,43,67.65,44.78Z"/><circle class="cls-1" cx="47.99" cy="38.75" r="5.45"/><path id="React" class="cls-2" d="M32.61,89.13l-4.24-6.41a4.33,4.33,0,0,0,4.07-4.56,4.58,4.58,0,0,0-4.92-4.74H21.21V89.13h2V82.89H26.3l4,6.24Zm-5.32-8H23.17v-6h4.12a3,3,0,1,1,0,6Zm12.59,8.24a6.18,6.18,0,0,0,4.52-1.74l-.85-1.16A5,5,0,0,1,40.05,88,4,4,0,0,1,36,84h9.21v-.45c0-3.41-2-6.1-5.47-6.1a6,6,0,0,0,.19,11.94Zm3.53-6.69H36a3.79,3.79,0,0,1,3.72-3.79,3.68,3.68,0,0,1,3.74,3.79Zm13.47,6.41V81.31c0-2.75-2-3.84-4.4-3.84a6,6,0,0,0-4.55,1.89l.83,1.22A4.53,4.53,0,0,1,52.24,79c1.65,0,2.87.87,2.87,2.41v2a4.73,4.73,0,0,0-3.76-1.55,3.72,3.72,0,0,0-4,3.74,3.79,3.79,0,0,0,4,3.77,4.89,4.89,0,0,0,3.76-1.58v1.3Zm-4.9-1a2.5,2.5,0,1,1,0-5,3.8,3.8,0,0,1,3.13,1.41v2.15A3.8,3.8,0,0,1,52,88.14Zm13.45,1.27a4.86,4.86,0,0,0,4.16-2l-1.17-1.08a3.44,3.44,0,0,1-2.9,1.48c-2.42,0-3.93-1.88-3.93-4.4s1.51-4.38,3.93-4.38a3.39,3.39,0,0,1,2.9,1.48l1.17-1.08a4.86,4.86,0,0,0-4.16-2,5.62,5.62,0,0,0-5.68,6c0,3.39,2.29,6,5.68,6Zm9.51,0a2.92,2.92,0,0,0,2.12-.73l-.52-1.32a1.71,1.71,0,0,1-1.2.47c-.78,0-1.16-.61-1.16-1.46V79.31h2.31V77.76H74.18V74.65H72.42v3.11H70.54v1.55h1.88v7.44c0,1.69.85,2.66,2.52,2.66Z"/></svg>