<?xml version="1.0" encoding="UTF-8" standalone="no"?>
<svg
   xmlns:dc="http://purl.org/dc/elements/1.1/"
   xmlns:cc="http://creativecommons.org/ns#"
   xmlns:rdf="http://www.w3.org/1999/02/22-rdf-syntax-ns#"
   xmlns:svg="http://www.w3.org/2000/svg"
   xmlns="http://www.w3.org/2000/svg"
   xmlns:sodipodi="http://sodipodi.sourceforge.net/DTD/sodipodi-0.dtd"
   xmlns:inkscape="http://www.inkscape.org/namespaces/inkscape"
   inkscape:version="1.0beta2 (2b71d25, 2019-12-03)"
   sodipodi:docname="icon.svg"
   id="svg38"
   version="1.1"
   viewBox="0 0 256 256"
   height="256px"
   width="256px">
  <metadata
     id="metadata42">
    <rdf:RDF>
      <cc:Work
         rdf:about="">
        <dc:format>image/svg+xml</dc:format>
        <dc:type
           rdf:resource="http://purl.org/dc/dcmitype/StillImage" />
      </cc:Work>
    </rdf:RDF>
  </metadata>
  <sodipodi:namedview
     inkscape:current-layer="256x256"
     inkscape:window-maximized="0"
     inkscape:window-y="9"
     inkscape:window-x="13"
     inkscape:cy="129.52381"
     inkscape:cx="128"
     inkscape:zoom="2.625"
     showgrid="false"
     id="namedview40"
     inkscape:window-height="1361"
     inkscape:window-width="1640"
     inkscape:pageshadow="2"
     inkscape:pageopacity="0"
     guidetolerance="10"
     gridtolerance="10"
     objecttolerance="10"
     borderopacity="1"
     inkscape:document-rotation="0"
     bordercolor="#666666"
     pagecolor="#ffffff" />
  <!-- Generator: Sketch 42 (36781) - http://www.bohemiancoding.com/sketch -->
  <title
     id="title10">256x256</title>
  <desc
     id="desc12">Created with Sketch.</desc>
  <defs
     id="defs14" />
  <g
     fill-rule="evenodd"
     fill="none"
     stroke-width="1"
     stroke="none"
     id="Page-1">
    <g
       id="256x256">
      <text
         y="-5.3333335"
         x="0.761904"
         fill="#4A4A4A"
         letter-spacing="2.12000012"
         line-spacing="8"
         font-weight="600"
         font-size="24"
         font-family="Avenir-Heavy, Avenir"
         id="REST-API"><tspan
           id="tspan17"
           y="243.69084"
           x="79.561905" /><tspan
           id="tspan19"
           y="232.66667"
           x="68.761902">REST API</tspan></text>
      <g
         transform="translate(48.761909,22.666667)"
         id="icon">
        <g
           transform="translate(26.936027,26.936027)"
           id="inner">
          <path
             inkscape:connector-curvature="0"
             fill="#EFC330"
             id="Combined-Shape"
             d="m 27.528181,27.951415 -2.174376,-2.174715 -0.01185,-0.01131 -9.786397,-9.787474 -0.0022,0.0011 C -5.1275421,36.659933 -5.1302357,70.198519 15.551785,90.88 l 9.788552,-9.789091 0.01077,-0.01024 2.176104,-2.176556 C 21.007213,72.384854 16.974007,63.378449 16.974007,53.429226 c 0,-9.950523 4.033604,-18.958 10.554174,-25.477811 z" />
          <path
             inkscape:connector-curvature="0"
             fill="#5DB886"
             id="path23"
             d="m 78.481246,78.905219 2.172222,2.172222 0.01293,0.01131 9.788014,9.789091 c 20.682558,-20.68633 20.682558,-54.217912 -0.0011,-74.90101 l -9.788552,9.788552 -0.01131,0.01131 -2.173793,2.174019 c 6.521022,6.519891 10.55413,15.527679 10.55413,25.478507 0,9.94922 -4.032461,18.956361 -10.552559,25.475993 z" />
          <path
             inkscape:connector-curvature="0"
             fill="#D83757"
             id="path25"
             d="m 78.479519,27.950563 2.17341,-2.173863 0.01185,-0.01131 9.788552,-9.788552 C 69.771313,-4.7062626 36.239192,-4.7078788 15.555556,15.977913 l 9.786397,9.787474 0.01185,0.01131 2.174376,2.174715 c 6.52046,-6.519696 15.527798,-10.551816 25.475457,-10.551816 h 0.0032 c 9.948083,0.0016 18.953563,4.03309 25.47265,10.550967 z" />
          <path
             inkscape:connector-curvature="0"
             fill="#33A6D2"
             id="path27"
             d="m 78.481033,78.905432 2.171896,2.172009 0.01401,0.01131 9.788013,9.789091 -0.0011,0.0022 c -20.682559,20.680398 -54.220067,20.683638 -74.902087,0 l 9.788552,-9.789091 0.01077,-0.01024 2.17616,-2.176499 C 34.047777,85.423974 43.055491,89.4562 53.003612,89.4562 h 0.0032 c 9.948853,-2.7e-4 18.954958,-4.032098 25.474164,-10.55073 z" />
        </g>
        <g
           id="outer">
          <path
             inkscape:connector-curvature="0"
             fill="#EFC330"
             id="Fill-5"
             d="m 136.46599,23.837845 -10.87245,10.874613 c 25.21696,25.213737 25.20942,66.095082 -0.003,91.305592 l -0.003,0.003 10.87461,10.87192 0.002,-0.002 c 31.21454,-31.21616 31.2167,-81.835956 0.001,-113.053195" />
          <path
             inkscape:connector-curvature="0"
             fill="#5DB886"
             id="Fill-7"
             d="M 34.285252,34.718384 23.411717,23.844848 c -31.2156227,31.221549 -31.2156227,81.833262 0.0011,113.048892 l 10.872457,-10.873 c -25.2110432,-25.21266 -25.2131981,-66.085925 0,-91.302356" />
          <path
             inkscape:connector-curvature="0"
             fill="#D83757"
             id="Fill-8"
             d="m 34.285252,126.02074 -10.872457,10.873 c 31.217777,31.21831 81.827335,31.21831 113.049965,-0.001 l -10.87515,-10.87192 c -25.21589,25.21374 -66.08862,25.21374 -91.302358,0" />
          <path
             inkscape:connector-curvature="0"
             fill="#33A6D2"
             id="Fill-9"
             d="M 34.289024,34.714074 C 59.498451,9.5041077 100.38141,9.4981818 125.59354,34.712458 L 136.46599,23.838384 C 105.24875,-7.3772391 54.630034,-7.3718518 23.414949,23.841616 l -0.0032,0.0038 10.873535,10.872997 0.0038,-0.0043" />
        </g>
      </g>
    </g>
  </g>
</svg>
